/* XPM */
static char *droplet[] = {
/* columns rows colors chars-per-pixel */
"22 22 127 2 ",
"   c None",
".  c #000616",
"X  c #000F1B",
"o  c #000B1E",
"O  c #002544",
"+  c #002647",
"@  c #083D72",
"#  c #0A446F",
"$  c #174263",
"%  c #084073",
"&  c #194F7D",
"*  c #003E82",
"=  c #125A8E",
"-  c #165C8F",
";  c #1C598A",
":  c #0A5594",
">  c #0F5E9E",
",  c #1B699F",
"<  c #0F62A4",
"1  c #1367AD",
"2  c #1E71AE",
"3  c #0461BF",
"4  c #116CB5",
"5  c #1377C6",
"6  c #1878C0",
"7  c #187DC9",
"8  c #1E87D9",
"9  c #1B8ADD",
"0  c #2681C2",
"q  c #2889CC",
"w  c #2A93DD",
"e  c #2297EC",
"r  c #299BEB",
"t  c #319AE1",
"y  c #289FF1",
"u  c #39A0E4",
"i  c #32A2ED",
"p  c #3DA5EA",
"a  c #3CA8ED",
"s  c #2AA5FB",
"d  c #2DA5F9",
"f  c #3DAAF1",
"g  c #37ABF8",
"h  c #30AAFE",
"j  c #3BB0FD",
"k  c #39B5FF",
"l  c #43AFF4",
"z  c #42B1F7",
"x  c #41B0F9",
"c  c #46B5FB",
"v  c #4BB7FB",
"b  c #4BB8FC",
"n  c #4AB9FF",
"m  c #4DBBFF",
"M  c #53BDFF",
"N  c #52BEFF",
"B  c #53BFFF",
"V  c #55BFFF",
"C  c #58BFFF",
"Z  c #56C1FF",
"A  c #5BC1FF",
"S  c #5FC1FD",
"D  c #5DC2FF",
"F  c #5EC3FF",
"G  c #60C2FD",
"H  c #62C3FD",
"J  c #60C3FF",
"K  c #61C3FF",
"L  c #61C4FF",
"P  c #62C4FF",
"I  c #64C4FD",
"U  c #67C5FD",
"Y  c #64C6FF",
"T  c #65C6FF",
"R  c #64C7FF",
"E  c #68C6FD",
"W  c #69C6FD",
"Q  c #6DC9FF",
"!  c #6FC9FF",
"~  c #74CCFF",
"^  c #76CCFE",
"/  c #7BCEFD",
"(  c #7CCEFD",
")  c #7DCFFF",
"_  c #83D2FD",
"`  c #81D0FE",
"'  c #86D2FD",
"]  c #85D2FF",
"[  c #87D3FF",
"{  c #91D7FE",
"}  c #92D8FF",
"|  c #96D8FE",
" . c #99DAFF",
".. c #9ADBFF",
"X. c #9CDBFE",
"o. c #9EDBFE",
"O. c #9FDCFE",
"+. c #9FDCFF",
"@. c #A2DEFE",
"#. c #A2DEFF",
"$. c #A4DDFE",
"%. c #A6DEFE",
"&. c #A7DFFE",
"*. c #A6DFFF",
"=. c #ABE0FF",
"-. c #ADE1FF",
";. c #AEE1FF",
":. c #B0E3FE",
">. c #B0E2FF",
",. c #B2E3FF",
"<. c #B1E4FF",
"1. c #B5E5FE",
"2. c #B6E5FF",
"3. c #B7E6FF",
"4. c #B8E6FF",
"5. c #B9E6FF",
"6. c #BDE7FE",
"7. c #BEE8FE",
"8. c #BFE8FF",
"9. c #BFE9FF",
"0. c #C1E8FE",
"q. c #C4EAFF",
"w. c #C8EBFF",
"e. c #C8ECFF",
"r. c #CEEEFF",
"t. c #D3F0FF",
"y. c #D8F3FF",
/* pixels */
"                                            ",
"                                            ",
"                    * 3                     ",
"                    8 s                     ",
"                  @ h k 1                   ",
"                  5 ! } e                   ",
"                  d 2.y.n :                 ",
"                4 J r.t.] 9                 ",
"                y  .e.q.<.j %               ",
"              > M 4.3.2.9.Q 7               ",
"              r [ 2.-.-.,...g               ",
"            < m +.>.;.=.*.#.V 6             ",
"            w Y %.7.6.1.&.| A i             ",
"            f ~ $.w.w.0.:.` C x &           ",
"            l ) o.5.q.8.O.E A c ;           ",
"            a ~ { @.&.X.( H D z $           ",
"            q R ^ _ ' / W S F t             ",
"            # m T U U I G J B =             ",
"              2 N L P K L Z 0               ",
"                - u v b p , X               ",
"                  . O + o                   ",
"                                            "
};
