/* XPM */
static char *first_quarter_moon[] = {
/* columns rows colors chars-per-pixel */
"22 22 145 2 ",
"   c None",
".  c #0F1017",
"X  c #15161D",
"o  c #17181E",
"O  c #1B1C23",
"+  c #1F2027",
"@  c #1F2028",
"#  c #212125",
"$  c #23252D",
"%  c #3E3728",
"&  c #272830",
"*  c #2A2C34",
"=  c #2E2F39",
"-  c #2F313C",
";  c #31323D",
":  c #353642",
">  c #373945",
",  c #383A47",
"<  c #363949",
"1  c #3B3D4B",
"2  c #3E404E",
"3  c #3F4250",
"4  c #46464A",
"5  c #524E40",
"6  c #575447",
"7  c #414453",
"8  c #454758",
"9  c #47495A",
"0  c #494C5D",
"q  c #4F5054",
"w  c #515155",
"e  c #5E5B50",
"r  c #55565A",
"t  c #646357",
"y  c #64645A",
"u  c #4B4E61",
"i  c #4D5063",
"p  c #525569",
"a  c #56596D",
"s  c #5D6073",
"d  c #676861",
"f  c #6C6D6A",
"g  c #70736E",
"h  c #616476",
"j  c #686974",
"k  c #676B7C",
"l  c #686B7B",
"z  c #6F7071",
"x  c #77797B",
"c  c #92762B",
"v  c #C37F1B",
"b  c #C37F27",
"n  c #7D807D",
"m  c #BE821D",
"M  c #B58333",
"N  c #CB9329",
"B  c #D29C29",
"V  c #C98F31",
"C  c #CF9E34",
"Z  c #C9953E",
"A  c #CB9433",
"S  c #D5A53B",
"D  c #D4A83C",
"F  c #DBAC3F",
"G  c #DEB23D",
"H  c #E1B43D",
"J  c #A59047",
"K  c #A9974F",
"L  c #AEA055",
"P  c #B3A95C",
"I  c #B2A962",
"U  c #B2AC6B",
"Y  c #B3AC75",
"T  c #B6B075",
"R  c #B8B27F",
"E  c #BFBF7C",
"W  c #CC9E58",
"Q  c #D9AD44",
"!  c #DFBB53",
"~  c #E2BC44",
"^  c #E2B749",
"/  c #E3BE4B",
"(  c #E5C34D",
")  c #EAC249",
"_  c #EECB4E",
"`  c #F1CD4C",
"'  c #E9D149",
"]  c #F2D24E",
"[  c #E4C350",
"{  c #E4C853",
"}  c #E9CE55",
"|  c #E5CD5B",
" . c #E9CD58",
".. c #EBD053",
"X. c #EBD35D",
"o. c #EED85B",
"O. c #F3D655",
"+. c #F5DC5B",
"@. c #EEE35F",
"#. c #F0E055",
"$. c #F5E458",
"%. c #E0CE64",
"&. c #EBD762",
"*. c #EEDA62",
"=. c #E4D56D",
"-. c #ECDC6E",
";. c #F2DE62",
":. c #E5D675",
">. c #E7DA77",
",. c #EDDC70",
"<. c #E5D37C",
"1. c #EFE16C",
"2. c #F3E364",
"3. c #F1E36C",
"4. c #FAEF6A",
"5. c #FEF46D",
"6. c #F0E370",
"7. c #F7ED7A",
"8. c #FCF475",
"9. c #FFFC74",
"0. c #F6F37F",
"q. c #FCF578",
"w. c #FEFA7B",
"e. c #838586",
"r. c #898882",
"t. c #8B8D8E",
"y. c #8F9193",
"u. c #BFB888",
"i. c #C0BC90",
"p. c #C6C68C",
"a. c #CACA99",
"s. c #C5C39C",
"d. c #ECE081",
"f. c #F7EE82",
"g. c #FAF383",
"h. c #FFFC83",
"j. c #F8F28C",
"k. c #FFFC8C",
"l. c #F8F697",
"z. c #FFFC94",
"x. c #CECFA2",
"c. c #CFCFA9",
"v. c #D1D2AB",
"b. c #F5F2A1",
"n. c #F9F8A5",
/* pixels */
"                                            ",
"                  j r.i.<.                  ",
"              < 7 u g E 0.9.@.{             ",
"          = < 9 u a n p.j.h.h.9.#.          ",
"        $ > 7 0 p s e.a.l.k.w.w.9.$.        ",
"      $ : 1 8 u a s t.x.n.z.h.w.q.5.'       ",
"    4 $ : 1 9 u a k y.c.n.z.h.w.q.4.2.D     ",
"    o = : 3 0 u p s y.v.b.j.f.q.8.2.o.~     ",
"    O = : 3 9 0 i s y.c.b.f.7.q.5.&.| [ Z   ",
"  q + = > 3 7 i s k e.s.b.z.g.6.2.;.| ( C   ",
"  r + * > 2 7 9 p p x u.d.g.7.1.3.*.[ / D   ",
"  r O & - , 7 8 8 0 z u.>.,.1.1.*.| ! / D   ",
"  w O & = > 2 8 8 0 f Y :.,.6.1.+.| / ( S   ",
"    o & = ; 1 7 7 9 f T =.&.1.*.X.} ( / A   ",
"    . $ * - > 1 7 7 d U %.*.*.X. .} ( G W   ",
"    o + & - ; 1 3 7 y I | 2.;...( ( / N     ",
"      . $ & ; , 1 7 t P *.+.+._ ( ~ H M     ",
"        X & * : > 1 e L ..O.] _ ^ Q v       ",
"        # X & * ; : 6 K { ` ) ^ Q m         ",
"            . $ & ; 5 J ) ) F B b           ",
"                O O % c B B V               ",
"                                            "
};
