/* XPM */
static char *full_moon[] = {
/* columns rows colors chars-per-pixel */
"22 22 127 2 ",
"   c None",
".  c #B07D19",
"X  c #AF8716",
"o  c #B48116",
"O  c #B5841A",
"+  c #AD8723",
"@  c #AE8229",
"#  c #B38824",
"$  c #B5922B",
"%  c #AA853B",
"&  c #C59526",
"*  c #C99B21",
"=  c #C2972F",
"-  c #C69B32",
";  c #D0A129",
":  c #D0A82A",
">  c #CDAB31",
",  c #CFAE38",
"<  c #D2A032",
"1  c #CCB434",
"2  c #CFB23E",
"3  c #DDB134",
"4  c #D0BA33",
"5  c #DFB53C",
"6  c #E1B738",
"7  c #B59F56",
"8  c #BEA84C",
"9  c #BEA055",
"0  c #C1A54F",
"q  c #DBAC41",
"w  c #DDB045",
"e  c #DDBC40",
"r  c #D0BF4C",
"t  c #C4B15C",
"y  c #CCBB5A",
"u  c #DEB852",
"i  c #E0B345",
"p  c #E5BE4B",
"a  c #CEBB65",
"s  c #CDBD6D",
"d  c #D0C04C",
"f  c #DED24B",
"g  c #D5C556",
"h  c #DCCE5C",
"j  c #E4C345",
"k  c #E7CB47",
"l  c #E5C24D",
"z  c #EAC449",
"x  c #EECA4C",
"c  c #F1D04F",
"v  c #E4C352",
"b  c #E5CA55",
"n  c #ECCD52",
"m  c #E4CA5A",
"M  c #E8CD58",
"N  c #EED255",
"B  c #EBD851",
"V  c #E1D65B",
"C  c #EBD35C",
"Z  c #E8DF58",
"A  c #F2D453",
"S  c #F0D559",
"D  c #F3DC5D",
"F  c #EBE24C",
"G  c #F2E05F",
"H  c #D4C36F",
"J  c #DED366",
"K  c #ECD660",
"L  c #EDDB64",
"P  c #E9D56A",
"I  c #ECDD6C",
"U  c #F1DD63",
"Y  c #ECDD72",
"T  c #EBE363",
"R  c #EFE26E",
"E  c #F2E165",
"W  c #F8E763",
"Q  c #F7EB66",
"!  c #F9EB66",
"~  c #F2E46C",
"^  c #F6E96E",
"/  c #F8EA6D",
"(  c #FCF165",
")  c #FBF36A",
"_  c #EFE076",
"`  c #EEE17F",
"'  c #F0E371",
"]  c #F6EA73",
"[  c #F0E47B",
"{  c #F4E979",
"}  c #FCF273",
"|  c #FEFA75",
" . c #FBF37C",
".. c #FFFA7D",
"X. c #EBE383",
"o. c #F6EC84",
"O. c #F2E78A",
"+. c #F5EC8C",
"@. c #FAF183",
"#. c #FFFE84",
"$. c #FCF58D",
"%. c #FFFD8B",
"&. c #F5EC96",
"*. c #F6EF98",
"=. c #F6F191",
"-. c #FAF595",
";. c #FFFC93",
":. c #F7F19E",
">. c #FAF49D",
",. c #FDFB9C",
"<. c #F6EFA3",
"1. c #F5EEA8",
"2. c #F7F0A4",
"3. c #F9F3A5",
"4. c #FEFCA4",
"5. c #F6F1AB",
"6. c #F9F4AC",
"7. c #FEFCAC",
"8. c #FAF5B3",
"9. c #FDFBB4",
"0. c #F9F5BD",
"q. c #FEFCBA",
"w. c #F7F2C0",
"e. c #FAF5C4",
"r. c #FCFAC3",
"t. c #FBFACB",
"y. c #FEFCD2",
/* pixels */
"                                            ",
"                                            ",
"              a g V L T Z f d               ",
"          s J =.4.4.,.;.%.#.| F r           ",
"        8 X.9.q.q.9.4.4.;.#.....) 4         ",
"      t X.q.w.w.e.r.q.7.4.;.....| ) 1       ",
"      J 7.0.w.w.r.t.r.9.4.;.#... .) B 0     ",
"    y *.8.0.e.e.t.y.r.q.4.=.@...} ! D >     ",
"    h >.5.e.e.e.t.0.e.q.4.o.{ | ) L M e 9   ",
"    I *.1.0.8.0.8.2.1.8.4.$.@.] Q L m l $   ",
"  s I &.6.9.2.<.2.1.6.<.+.%. .I E E b p =   ",
"  H Y O.>.4.2.&.2.6.*.&._ I _ ~ I C u p -   ",
"  a L @.$.-.,.&.:.,.&.` Y Y I ' K M v l -   ",
"  9 h { @.@.$.+.O.+.+._ Y I ~ U K n l p #   ",
"    2 L ^ ]  . .Y P [ { L K U K C b l 5 %   ",
"    $ b G ~ ] / ^ I ~ R K U U M n v p &     ",
"      , D D E ~ ! / W W W D D c z p 6 @     ",
"      $ k C C U U U U D D S c c p i O       ",
"        X j n n A S A A c c x p q o         ",
"          + : z x n n n x x i < .           ",
"              O * 3 5 6 6 ; O               ",
"                                            "
};
