/* XPM */
static char *last_quarter_moon[] = {
/* columns rows colors chars-per-pixel */
"22 22 151 2 ",
"   c None",
".  c #070701",
"X  c #0F0E0A",
"o  c #10120D",
"O  c #161612",
"+  c #1A1A16",
"@  c #1C1D1C",
"#  c #1F2022",
"$  c #212324",
"%  c #24262C",
"&  c #2D2D2E",
"*  c #262730",
"=  c #272931",
"-  c #2A2B34",
";  c #2D2F39",
":  c #2F303B",
">  c #343535",
",  c #32333D",
"<  c #363839",
"1  c #4F441D",
"2  c #6D5D17",
"3  c #73641D",
"4  c #343541",
"5  c #373945",
"6  c #393B46",
"7  c #3B3D4B",
"8  c #3E404E",
"9  c #3F4251",
"0  c #42444C",
"q  c #424454",
"w  c #474852",
"e  c #484A54",
"r  c #444658",
"t  c #46485A",
"y  c #4A4C5E",
"u  c #51535E",
"i  c #6B6243",
"p  c #70694A",
"a  c #767052",
"s  c #7D795B",
"d  c #4B4E61",
"f  c #4E5165",
"g  c #515365",
"h  c #53566A",
"j  c #585A69",
"k  c #5A5D71",
"l  c #5E6170",
"z  c #6E6E62",
"x  c #7F7E65",
"c  c #656876",
"v  c #6B6E7C",
"b  c #6D707D",
"n  c #956F16",
"m  c #967318",
"M  c #A97C11",
"N  c #9F7E23",
"B  c #807E6B",
"V  c #BE901D",
"C  c #CB9F2B",
"Z  c #CCAD3A",
"A  c #D8B63F",
"S  c #E2BD3E",
"D  c #87896B",
"F  c #83816C",
"G  c #908D6C",
"H  c #858474",
"J  c #BDB26C",
"K  c #C1A74C",
"L  c #C0AE49",
"P  c #C5B44E",
"I  c #C4AE50",
"U  c #CDBE51",
"Y  c #C8B859",
"T  c #E5BD41",
"R  c #CAB564",
"E  c #CCBB66",
"W  c #DFC753",
"Q  c #D8C55D",
"!  c #E8C843",
"~  c #EBC64C",
"^  c #EBCB4C",
"/  c #ECCE53",
"(  c #E4C555",
")  c #EED054",
"_  c #EDD55B",
"`  c #EFD95C",
"'  c #F0D65C",
"]  c #F1DA5C",
"[  c #CCC164",
"{  c #D2C26E",
"}  c #CBC270",
"|  c #D3D178",
" . c #E6D163",
".. c #EBDE6D",
"X. c #EDD962",
"o. c #F1DE63",
"O. c #EBDE71",
"+. c #EFE06E",
"@. c #F4E467",
"#. c #F3E46A",
"$. c #F6EA6D",
"%. c #FAEE6C",
"&. c #EFE476",
"*. c #F9EE7A",
"=. c #F2E876",
"-. c #FAF177",
";. c #FAF07F",
":. c #707380",
">. c #8F8F82",
",. c #959682",
"<. c #9A9B8D",
"1. c #A1A395",
"2. c #A5A79D",
"3. c #A7A89C",
"4. c #D0CA81",
"5. c #D0CB8A",
"6. c #D3CF94",
"7. c #D6D39E",
"8. c #D8D39F",
"9. c #DDDD9A",
"0. c #EFE382",
"q. c #F4EB84",
"w. c #FBF38A",
"e. c #F5EC94",
"r. c #F7EE9A",
"t. c #FCF695",
"y. c #FFFE96",
"u. c #F7F199",
"i. c #DEDDA6",
"p. c #DDDBAF",
"a. c #F6EEA4",
"s. c #F4EDA9",
"d. c #F7F0A7",
"f. c #F9F5A4",
"g. c #FCF9A3",
"h. c #F6F0AB",
"j. c #FAF4AB",
"k. c #FEFBAC",
"l. c #E2E2BB",
"z. c #E2E2B3",
"x. c #F7F2B4",
"c. c #FAF5B1",
"v. c #FBF9B7",
"b. c #F7F2BF",
"n. c #F9F5BD",
"m. c #FCF9BB",
"M. c #FAF5C4",
"N. c #FBF9C4",
"B. c #FAF7CF",
"V. c #FCFACD",
"C. c #FDFCD3",
/* pixels */
"                                            ",
"                  E J G z                   ",
"            3 U &.*.| D u q < @             ",
"          P y.k.j.g.9.,.l g y 0 >           ",
"        Q k.m.b.n.v.i.<.c h f q 7 <         ",
"      L g.v.b.M.N.N.z.1.b j f t 9 5 &       ",
"    2 w.k.n.M.M.N.C.l.1.b k f y q 6 , @     ",
"    P f.c.b.M.M.V.B.l.3.v h d y q 5 , %     ",
"    ..u.s.b.M.M.n.x.p.1.:.f d d r 5 ; = O   ",
"  R O.e.h.v.j.x.j.a.i.<.v k f r 9 6 4 * #   ",
"  { +.e.g.c.a.r.d.s.8.>.j h d q 7 7 ; * #   ",
"  { +.q.t.g.f.e.d.f.6.H g t t r 7 4 = * @   ",
"  R _ ;.w.t.t.e.u.u.5.B u t t q 6 4 - % @   ",
"    W &.*.;.w.w.0.0.4.F y q r 7 5 : * $ +   ",
"    Z ` #.$.*.-.&. .} x t q 0 6 4 - * # X   ",
"    m ( ] @.#.$.%.#.[ s w q 7 4 ; - % +     ",
"      A ` ` o.#.@.@.[ B w 6 7 , ; * $ X     ",
"        ! ) _ _ ' o.Y a 0 6 , : = $ O       ",
"        n S ^ / ) / I p < , ; & $ +         ",
"            C T ~ ~ K i < ; % $ O           ",
"                M V N 1 + o .               ",
"                                            "
};
