/* XPM */
static char *new_moon[] = {
/* columns rows colors chars-per-pixel */
"22 22 209 2 ",
"   c None",
".  c #07070C",
"X  c #0D0E11",
"o  c #0F0F11",
"O  c #0F1016",
"+  c #0F1017",
"@  c #121217",
"#  c #141418",
"$  c #14141B",
"%  c #16161B",
"&  c #16171B",
"*  c #14151C",
"=  c #17171C",
"-  c #14141E",
";  c #15171E",
":  c #16171F",
">  c #18191D",
",  c #18191E",
"<  c #1B1B20",
"1  c #1C1C22",
"2  c #1D1D22",
"3  c #1C1D23",
"4  c #1C1D25",
"5  c #1D1E24",
"6  c #1E1F25",
"7  c #1D1F28",
"8  c #1F2026",
"9  c #1F2128",
"0  c #202127",
"q  c #212228",
"w  c #202229",
"e  c #22232A",
"r  c #23242A",
"t  c #22242B",
"y  c #23242B",
"u  c #22232D",
"i  c #23252C",
"p  c #24252C",
"a  c #25262D",
"s  c #25272E",
"d  c #26272F",
"f  c #252731",
"g  c #272830",
"h  c #272931",
"j  c #282932",
"k  c #292932",
"l  c #292A33",
"z  c #2A2B33",
"x  c #292B34",
"c  c #2A2B34",
"v  c #2A2C35",
"b  c #2B2C35",
"n  c #2B2C36",
"m  c #2B2D36",
"M  c #2B2D37",
"N  c #2C2D37",
"B  c #2A2C38",
"V  c #2C2D39",
"C  c #2D2E38",
"Z  c #2D2E39",
"A  c #2E2F39",
"S  c #2C2E3A",
"D  c #2E3039",
"F  c #2E303A",
"G  c #2F303A",
"H  c #2E303B",
"J  c #2F303B",
"K  c #2F313B",
"L  c #2F313F",
"P  c #30313B",
"I  c #30323C",
"U  c #30323D",
"Y  c #31333D",
"T  c #31323E",
"R  c #30333E",
"E  c #30323F",
"W  c #31333F",
"Q  c #32333E",
"!  c #32333F",
"~  c #32343F",
"^  c #333540",
"/  c #323441",
"(  c #333541",
")  c #323443",
"_  c #343541",
"`  c #343642",
"'  c #353642",
"]  c #343743",
"[  c #353743",
"{  c #353744",
"}  c #363844",
"|  c #373845",
" . c #373946",
".. c #383947",
"X. c #383A47",
"o. c #393A48",
"O. c #393B48",
"+. c #393A49",
"@. c #393B49",
"#. c #3A3B49",
"$. c #3A3B4A",
"%. c #3A3C49",
"&. c #3A3C4A",
"*. c #3B3D4A",
"=. c #3B3D4B",
"-. c #3A3D4E",
";. c #3B3D4E",
":. c #3C3E4C",
">. c #3D3E4D",
",. c #3C3F4D",
"<. c #3D3F4D",
"1. c #3D3F4E",
"2. c #3E3F4E",
"3. c #3D3F51",
"4. c #3F4150",
"5. c #3F4151",
"6. c #3F4153",
"7. c #404251",
"8. c #404252",
"9. c #414352",
"0. c #404353",
"q. c #414353",
"w. c #404255",
"e. c #414454",
"r. c #424454",
"t. c #424455",
"y. c #414456",
"u. c #434556",
"i. c #434656",
"p. c #444556",
"a. c #444657",
"s. c #444758",
"d. c #454758",
"f. c #454759",
"g. c #464859",
"h. c #46495A",
"j. c #46495B",
"k. c #47495B",
"l. c #484B5C",
"z. c #484B5D",
"x. c #494B5E",
"c. c #494C5D",
"v. c #494C5F",
"b. c #4A4C5E",
"n. c #4A4C5F",
"m. c #4A4D60",
"M. c #4B4E60",
"N. c #4C4F63",
"B. c #4D5063",
"V. c #4D5064",
"C. c #4D5164",
"Z. c #4E5064",
"A. c #4E5164",
"S. c #4E5265",
"D. c #4F5265",
"F. c #4F5266",
"G. c #505366",
"H. c #505367",
"J. c #5B5C62",
"K. c #515568",
"L. c #525568",
"P. c #525669",
"I. c #53566A",
"U. c #54576A",
"Y. c #55576C",
"T. c #55586C",
"R. c #55596C",
"E. c #56586C",
"W. c #56596C",
"Q. c #575A6D",
"!. c #575A6E",
"~. c #575B6E",
"^. c #585B6E",
"/. c #595B6E",
"(. c #595B6F",
"). c #595C6F",
"_. c #5A5D70",
"`. c #5B5D71",
"'. c #5B5E72",
"]. c #5C5F72",
"[. c #5D5F72",
"{. c #5F6067",
"}. c #5E6174",
"|. c #5F6174",
" X c #606169",
".X c #61626A",
"XX c #64656E",
"oX c #616476",
"OX c #626577",
"+X c #676972",
"@X c #676973",
"#X c #6A6C76",
"$X c #636678",
"%X c #646778",
"&X c #646779",
"*X c #656779",
"=X c #65687A",
"-X c #66697B",
";X c #67697B",
":X c #686A7C",
">X c #686B7C",
",X c #696C7D",
"<X c #6B6D7E",
"1X c #6C6E80",
"2X c #6C6F80",
"3X c #6F7182",
"4X c #727584",
"5X c #727585",
"6X c #767988",
/* pixels */
"                                            ",
"                  XX@X#X+X                  ",
"              E ;.3.w.y.6.-./ 7             ",
"          ^ c.V.Z.L.I.S.n.s.8.&.Y           ",
"        [ l.K.^.].|.[.~.F.z.9.&.' G         ",
"      U d.H.R.'.*X2X>X|.W.N.u.<.} K x       ",
"    - q.M.I.}.%X<X6X3XOX).C.d.4.X.U c 3     ",
"    V d.A.!.$X,X4X5X1X:XE.x.r.7.#.U x i     ",
"    ) e.x.`.$X=X-XoX&X;X/.j.r.7.@.H j i >   ",
"   XL 0.m.(.I._._.R.^._.Q.D.g.=. .Q x t 5   ",
"  .XS 1.v.H.B.B.U.T.W.G.h.z.r.O.} U g w 5   ",
"  {.B X.i.m.B.b.P.Y.G.k.r.2.,.*._ N a 9 2   ",
"  J.f } 1.p.l.f.M.S.m.t.7.<.:.X.T c p 8 <   ",
"    u U | :.t.a.q.i.k.i.<.o.#.' J k r 5 &   ",
"    4 m Y { :.7.=...8.5.O.X.} Y m d q 1 o   ",
"    @ h C W | %.<.>.<.=.| X.[ Z j p 8 ,     ",
"      g b A ~ | +.=.$.+...[ ! n s q 6 X     ",
"        z n D R ( [ ] ` ! I C l e 6 %       ",
"        & l c M F P K F C b h y 0 =         ",
"            i c v m b c j d y 0 #           ",
"                O * : ; $ + .               ",
"                                            "
};
