/* XPM */
static char *snowflake[] = {
/* columns rows colors chars-per-pixel */
"22 22 166 2 ",
"   c None",
".  c #7085BE",
"X  c #6989CF",
"o  c #6786D0",
"O  c #748DD4",
"+  c #6C9BDB",
"@  c #7EA4DD",
"#  c #6CA3E4",
"$  c #71A5E6",
"%  c #8298CF",
"&  c #899EDB",
"*  c #8B9EDA",
"=  c #899EDC",
"-  c #87AFDF",
";  c #8CABDD",
":  c #8DADDE",
">  c #91A2D7",
",  c #97ABDC",
"<  c #A1B0D5",
"1  c #88AFE1",
"2  c #88AEEA",
"3  c #8FB8E1",
"4  c #80B5EA",
"5  c #8CB3EA",
"6  c #89B5ED",
"7  c #89B8EA",
"8  c #93B7E4",
"9  c #96BBE1",
"0  c #9EB8E2",
"q  c #9BBCE2",
"w  c #9CBEE5",
"e  c #97B3EA",
"r  c #93B8E8",
"t  c #97B9E8",
"y  c #97B8E9",
"u  c #96BBEE",
"i  c #98BBEF",
"p  c #A2BAE9",
"a  c #A2BEF3",
"s  c #87C1EB",
"d  c #8FC1EB",
"f  c #96C0EB",
"g  c #97C3ED",
"h  c #9DC2E9",
"j  c #9EC0EA",
"k  c #9CC2EC",
"l  c #97C2F0",
"z  c #9EC7F0",
"x  c #9EC4F2",
"c  c #9BC9F2",
"v  c #9FCAF0",
"b  c #9FCCF1",
"n  c #A3C2E6",
"m  c #A9C1ED",
"M  c #A8C9ED",
"N  c #BAC9E4",
"B  c #BECEE5",
"V  c #B0C3E8",
"C  c #A4C6F2",
"Z  c #ADC4F5",
"A  c #A1CAF1",
"S  c #A6C8F1",
"D  c #A1CCF2",
"F  c #A5CCF3",
"G  c #A8CCF3",
"H  c #ADCCF4",
"J  c #B0CEF0",
"K  c #B2CEF3",
"L  c #B9CAF0",
"P  c #BECEF4",
"I  c #A6D0F4",
"U  c #ADD1F3",
"Y  c #AFD5F2",
"T  c #ABD3F4",
"R  c #AFD3F5",
"E  c #ACD4F5",
"W  c #B2D0F0",
"Q  c #B4D0F1",
"!  c #B7D2F0",
"~  c #B0D4F1",
"^  c #B1D4F2",
"/  c #B3D5F2",
"(  c #B2D4F3",
")  c #B7D6F3",
"_  c #B3D0F4",
"`  c #B2D3F4",
"'  c #B4D1F4",
"]  c #B1D7F6",
"[  c #B4D7F4",
"{  c #B6D7F4",
"}  c #BFD2F1",
"|  c #B9D4F3",
" . c #BCD4F1",
".. c #B9D6F7",
"X. c #BCD4F6",
"o. c #B4DAF4",
"O. c #B7DBF5",
"+. c #B7DDF5",
"@. c #B9DBF4",
"#. c #BBD8F7",
"$. c #BCD9F4",
"%. c #B9DCF7",
"&. c #BDDDF5",
"*. c #BCDEF4",
"=. c #BFDEF5",
"-. c #B4D6F8",
";. c #B6D6F8",
":. c #B8D7F9",
">. c #C0CCE1",
",. c #C0D3E7",
"<. c #C0D3E9",
"1. c #C1D3F2",
"2. c #C4D7F3",
"3. c #C0D2F5",
"4. c #C3D7F5",
"5. c #C4D7F5",
"6. c #C2D9F0",
"7. c #C3D8F2",
"8. c #C0D9F7",
"9. c #C0DAF7",
"0. c #C6D8F4",
"q. c #C6DEF5",
"w. c #CCDCF2",
"e. c #CDDCF3",
"r. c #CFDEF4",
"t. c #C5D9F8",
"y. c #C6DBF8",
"u. c #C1DDF8",
"i. c #C2DDF8",
"p. c #C1DEF8",
"a. c #C1DFF9",
"s. c #C8DBF8",
"d. c #CEDAF9",
"f. c #D6DFF1",
"g. c #C1E4F5",
"h. c #C3E5F6",
"j. c #C5E7F7",
"k. c #CBE0F7",
"l. c #C8E8F6",
"z. c #C8E8F7",
"x. c #C9E8F7",
"c. c #C4E1FB",
"v. c #CAE3F8",
"b. c #CCE1F8",
"n. c #CCE2F8",
"m. c #C8E4F8",
"M. c #CAE4FB",
"N. c #C8E3FC",
"B. c #CEE6FD",
"V. c #D5E0F3",
"C. c #D6E1F2",
"Z. c #D6E4F1",
"A. c #D0E2F4",
"S. c #D0E5F6",
"D. c #D6E6F6",
"F. c #D7E6F6",
"G. c #DBE5F7",
"H. c #DAEBF4",
"J. c #D0E0F9",
"K. c #D5E3FA",
"L. c #DEE7F8",
"P. c #DEE9F8",
"I. c #E0ECF5",
"U. c #E3EEF4",
"Y. c #E3ECF9",
"T. c #ECF4FD",
/* pixels */
"                                            ",
"                      T.                    ",
"                    U.H.                    ",
"                V.  I.Z.  P.Y.              ",
"            f.C.<.w.F.D.r.,.B G.            ",
"          L.1.    >.A.S.N     2.7.          ",
"    e.Q n.k.!       q.)        .$.b.| 6.    ",
"      0 M h.*.      m.[       =.x.W :       ",
"        ^ j.+.%.    v.{     a.o.z.Y         ",
"      E s 3 w v T i.u.p.9.] b h 9 d I       ",
"      -         n R c.M.-.8         1       ",
"      }           ;.N.B.:.0.        5.      ",
"      7 c s.  8.G r ' ..t G #.  K.F 4       ",
"        f O.( l y   4.K   q x U &.g         ",
"      J.A g./       y.H       J l.D t.      ",
"    L $ + j z       X.C       S k @ # m     ",
"      ,   3.6     d._ ` P     u i           ",
"            O   Z 2 ~ @.5 a   & =           ",
"                o % p e > X *               ",
"                    V ;                     ",
"                    < .                     ",
"                                            "
};
