/* XPM */
static char *waning_gibbous_moon[] = {
/* columns rows colors chars-per-pixel */
"22 22 155 2 ",
"   c None",
".  c #0E0E0A",
"X  c #10100C",
"o  c #191403",
"O  c #171712",
"+  c #191A16",
"@  c #1D1E1D",
"#  c #21211E",
"$  c #28291B",
"%  c #222324",
"&  c #25262B",
"*  c #2C2C2D",
"=  c #353226",
"-  c #272830",
";  c #2B2C35",
":  c #2F3039",
">  c #313232",
",  c #32333C",
"<  c #38373A",
"1  c #3B3D3B",
"2  c #4A3C13",
"3  c #403D38",
"4  c #6D5D17",
"5  c #78641D",
"6  c #43423F",
"7  c #5A513B",
"8  c #685936",
"9  c #343642",
"0  c #363843",
"q  c #3F414D",
"w  c #4D4B44",
"e  c #555347",
"r  c #5A5340",
"t  c #53524F",
"y  c #5A584A",
"u  c #474851",
"i  c #4E4E51",
"p  c #595957",
"a  c #605F53",
"s  c #666543",
"d  c #746A46",
"f  c #6B6C5D",
"g  c #686960",
"h  c #956F16",
"j  c #967318",
"k  c #A97B11",
"l  c #8C7E48",
"z  c #BF921D",
"x  c #A28222",
"c  c #BC9425",
"v  c #CB9F2B",
"b  c #CCAD3A",
"n  c #D8B63F",
"m  c #E2BD3E",
"M  c #8B804E",
"N  c #9E9357",
"B  c #AC9245",
"V  c #B19E4C",
"C  c #A99D5A",
"Z  c #A7A55F",
"A  c #AFA55F",
"S  c #818066",
"D  c #9C9766",
"F  c #94946A",
"G  c #A7A366",
"H  c #AEA762",
"J  c #AFAF76",
"K  c #B7B372",
"L  c #C0AE49",
"P  c #C5B44E",
"I  c #DCB847",
"U  c #D6BB4D",
"Y  c #C6B053",
"T  c #CDBE51",
"R  c #E5BD41",
"E  c #CAB564",
"W  c #C8BD6D",
"Q  c #CBBB66",
"!  c #DFC753",
"~  c #D6C15B",
"^  c #D8C55D",
"/  c #E8C843",
"(  c #EAC64B",
")  c #ECCA4E",
"_  c #E2C24C",
"`  c #F0CF4F",
"'  c #EDCE52",
"]  c #E4C555",
"[  c #EFD256",
"{  c #ECD55B",
"}  c #EFD95C",
"|  c #F1D353",
" . c #F4D854",
".. c #F0D65C",
"X. c #F3DC5C",
"o. c #F8E45E",
"O. c #D2C26E",
"+. c #D3D174",
"@. c #DAD779",
"#. c #E1CF63",
"$. c #E9D564",
"%. c #E6D967",
"&. c #EDDA62",
"*. c #E7D96D",
"=. c #EBDD6D",
"-. c #F1DC62",
";. c #E1DD75",
":. c #ECDD73",
">. c #EFE16F",
",. c #F4E364",
"<. c #F8E662",
"1. c #F3E56B",
"2. c #F6EA6D",
"3. c #F9ED6C",
"4. c #EDE576",
"5. c #EEE17C",
"6. c #EBE97B",
"7. c #F2E572",
"8. c #F3E77D",
"9. c #F5ED7A",
"0. c #F9EE7A",
"q. c #FAF177",
"w. c #F5F07E",
"e. c #FAF07F",
"r. c #EBE482",
"t. c #F2E681",
"y. c #F5ED83",
"u. c #F1E588",
"i. c #F7EF8E",
"p. c #FAF484",
"a. c #FBF38A",
"s. c #FCF98C",
"d. c #F5EC94",
"f. c #F6EE9B",
"g. c #FCF695",
"h. c #FFFD96",
"j. c #FAF399",
"k. c #F6EEA4",
"l. c #F8EFA4",
"z. c #F5EEA9",
"x. c #F7F1A6",
"c. c #FAF6A3",
"v. c #FEFCA4",
"b. c #F7F1AA",
"n. c #F9F4AC",
"m. c #FEFCAD",
"M. c #FAF5B2",
"N. c #F7F2BF",
"B. c #F9F5BC",
"V. c #FDFBBB",
"C. c #FDFAB5",
"Z. c #FAF5C4",
"A. c #FDFBC5",
"S. c #FBFACE",
"D. c #FEFDD4",
/* pixels */
"                                            ",
"                  Q W K D                   ",
"            5 T 4.9.w.6.+.G s $             ",
"          P h.m.n.v.v.h.s.r.K f 0           ",
"        ^ v.V.N.B.V.m.v.h.s.@.F p 0         ",
"      L c.V.N.Z.Z.S.V.m.v.h.y.K g q 9       ",
"    4 a.M.B.Z.Z.A.D.A.C.v.h.p.+.l u 0 #     ",
"    P c.M.B.Z.Z.S.S.A.V.c.i.y.;.D i 9 *     ",
"    =.f.k.Z.Z.Z.B.M.B.V.v.y.9.4.G t 9 ; +   ",
"  E >.d.b.B.b.M.b.x.b.n.v.h.p.*.H p 0 ; #   ",
"  O.:.d.c.M.k.f.x.b.x.f.t.y.9.%.H a 9 ; %   ",
"  O.=.y.g.v.c.f.x.c.f.u.4.=.>.=.H y : - %   ",
"  E { w.a.g.g.u.f.j.d.5.:.:.1.*.C w : - #   ",
"    ] 7.0.p.a.a.t.u.y.8.=.$.1.#.N w ; - +   ",
"    b &.1.2.0.q.=.$.7.7.$.-.-.T l w ; % X   ",
"    j ] X.,.1.2.3.1.1.,.&.-.-.Y d < - @     ",
"      n } } -.1.1.<.<.o.<.X.{ V r ; & .     ",
"        / [ { { ..X.X.X. .| U l 3 & +       ",
"        h m ) ) ' | [ | ` _ B 7 * +         ",
"            v R ( ) ) ( I B 8 = O           ",
"                k z v x 5 2 o               ",
"                                            "
};
