/* XPM */
static char *waning_crescent_moon[] = {
/* columns rows colors chars-per-pixel */
"22 22 135 2 ",
"   c None",
".  c #040501",
"X  c #0B0B09",
"o  c #10110E",
"O  c #131314",
"+  c #181917",
"@  c #17181A",
"#  c #1A1B1C",
"$  c #232015",
"%  c #24241F",
"&  c #3D3418",
"*  c #1C1D22",
"=  c #1F2026",
"-  c #252623",
";  c #292926",
":  c #23242B",
">  c #2A2C2C",
",  c #272831",
"<  c #2A2B34",
"1  c #2D2E38",
"2  c #2E303B",
"3  c #313237",
"4  c #393A37",
"5  c #31333D",
"6  c #413F39",
"7  c #594716",
"8  c #7C5D16",
"9  c #41413D",
"0  c #6A6039",
"q  c #343642",
"w  c #363844",
"e  c #383A47",
"r  c #3B3D4B",
"t  c #3E414C",
"y  c #3F4151",
"u  c #474744",
"i  c #434449",
"p  c #4F504B",
"a  c #565244",
"s  c #424453",
"d  c #474952",
"f  c #454759",
"g  c #46495A",
"h  c #494B5E",
"j  c #5E5E55",
"k  c #575859",
"l  c #5F6057",
"z  c #796E42",
"x  c #7F794E",
"c  c #696750",
"v  c #686856",
"b  c #4B4D61",
"n  c #4E5265",
"m  c #505366",
"M  c #54566A",
"N  c #56596C",
"B  c #5A5D6D",
"V  c #5B5D63",
"C  c #5B5D71",
"Z  c #5F6174",
"A  c #757363",
"S  c #626576",
"D  c #666872",
"F  c #646779",
"G  c #66697B",
"H  c #6A6C7D",
"J  c #6F717C",
"K  c #707174",
"L  c #A37E24",
"P  c #AE8519",
"I  c #A08531",
"U  c #B28F35",
"Y  c #C6A32C",
"T  c #CEAA2E",
"R  c #C5A533",
"E  c #DAB934",
"W  c #9E904E",
"Q  c #8D8854",
"!  c #978E5C",
"~  c #A9A35F",
"^  c #B3A851",
"/  c #B9AF5A",
"(  c #888363",
")  c #9D9D7F",
"_  c #9C9A75",
"`  c #A09C68",
"'  c #C2AA47",
"]  c #CAB74E",
"[  c #CCBB56",
"{  c #C6B462",
"}  c #C9B260",
"|  c #CDBD77",
" . c #DFC04F",
".. c #DEC654",
"X. c #EBD75C",
"o. c #D2C26E",
"O. c #CDC07A",
"+. c #D9D57C",
"@. c #E3D663",
"#. c #E7DA66",
"$. c #EED963",
"%. c #ECDE6F",
"&. c #ECDF71",
"*. c #E5DC74",
"=. c #EAE07A",
"-. c #F3E671",
";. c #F8EF7C",
":. c #6C6E80",
">. c #6F7182",
",. c #727585",
"<. c #767988",
"1. c #7A7D84",
"2. c #868886",
"3. c #85868A",
"4. c #91928F",
"5. c #A1A189",
"6. c #ABAB89",
"7. c #A5A496",
"8. c #AAAB96",
"9. c #B4B49F",
"0. c #C1BEA3",
"q. c #E4DE84",
"w. c #E3E08E",
"e. c #F4EB84",
"r. c #E4E19D",
"t. c #EFEB9E",
"y. c #F6ED95",
"u. c #F5F09C",
"i. c #F9F19C",
"p. c #C8C9A3",
"a. c #D1CFA8",
"s. c #E4DFA3",
"d. c #E5E2AF",
"f. c #F1EDAD",
"g. c #F8F4AF",
/* pixels */
"                                            ",
"                  ! ( A l                   ",
"            O.^ Q v k d t 5 > p             ",
"          [ +.6.K B m n b f s 1 -           ",
"        ] t.p.2.S Z C N m h s r q @         ",
"      [ u.d.7.J G :.H Z N b f r w 1 O       ",
"    | =.g.a.4.J H <.:.F B n f y e 5 : ;     ",
"    [ i.f.0.3.H ,.,.:.H M h s s r 5 1 O     ",
"    @.y.d.9.1.G H Z G H N g s s r 1 < * 4   ",
"  [ =.y.r.8.D B C N N C N n f r w 5 < : @   ",
"  o.&.y.r.5.B n M N N m g h s r w 5 , : #   ",
"  o.&.e.q.) B h M M n g s r r r q < : : #   ",
"  } #.;.q._ V g b n b s s r r r 5 < : * +   ",
"    ..-.*.` k g s f g s t r r q 1 < : * +   ",
"    R $.#.~ j s r e s y r e q 5 < , : O u   ",
"    U  .X./ c i r r r r w e q 1 < : * X     ",
"      Y X.[ x u r r r e e q q < , : O 4     ",
"        E ..W a 5 q q q 5 5 < < : # X       ",
"        L T ' z 9 5 2 2 1 < , , @ .         ",
"            P I 0 9 3 < < , # X -           ",
"                8 7 & $ O o -               ",
"                                            "
};
