/* XPM */
static char *waxing_crescent_moon[] = {
/* columns rows colors chars-per-pixel */
"22 22 135 2 ",
"   c None",
".  c #10100C",
"X  c #131412",
"o  c #171818",
"O  c #191A1C",
"+  c #231F16",
"@  c #22221D",
"#  c #3C3217",
"$  c #1F2124",
"%  c #222320",
"&  c #2B2A26",
"*  c #23242C",
"=  c #2F312F",
"-  c #2B2C35",
";  c #2D2F39",
":  c #2F3035",
">  c #2E303A",
",  c #353632",
"<  c #3C3A35",
"1  c #31333D",
"2  c #3B3A38",
"3  c #594715",
"4  c #7C5F15",
"5  c #4E4A3C",
"6  c #625736",
"7  c #6E633C",
"8  c #353643",
"9  c #373845",
"0  c #3A3B45",
"q  c #3B3D4B",
"w  c #3F4150",
"e  c #4B4A45",
"r  c #47474B",
"t  c #47484A",
"y  c #4A4B4E",
"u  c #5A5540",
"i  c #424454",
"p  c #454852",
"a  c #454658",
"s  c #46485A",
"d  c #494C5D",
"f  c #4E515F",
"g  c #545554",
"h  c #575956",
"j  c #5D5D54",
"k  c #56585B",
"l  c #5D5E5A",
"z  c #726A41",
"x  c #686A56",
"c  c #636459",
"v  c #73745E",
"b  c #4B4E61",
"n  c #4E5164",
"m  c #505366",
"M  c #53566A",
"N  c #56596D",
"B  c #595B6F",
"V  c #5B5E71",
"C  c #5F6174",
"Z  c #646662",
"A  c #6F7069",
"S  c #717061",
"D  c #70716B",
"F  c #626577",
"G  c #646779",
"H  c #66697B",
"J  c #696C7D",
"K  c #A0700F",
"L  c #A97315",
"P  c #997225",
"I  c #987931",
"U  c #AB7D2B",
"Y  c #847C4E",
"T  c #827C50",
"R  c #B3821D",
"E  c #AC8327",
"W  c #BB8A21",
"Q  c #B99029",
"!  c #AF8A3F",
"~  c #C0942C",
"^  c #C59A31",
"/  c #CC9C34",
"(  c #C1A23B",
")  c #D6A931",
"_  c #D8AB34",
"`  c #D5A73D",
"'  c #D4B234",
"]  c #D9C33A",
"[  c #8B814E",
"{  c #978543",
"}  c #97894A",
"|  c #858053",
" . c #8F8C52",
".. c #9E9A5C",
"X. c #9B935D",
"o. c #AF8B4C",
"O. c #A99447",
"+. c #B69542",
"@. c #BB9843",
"#. c #BEA248",
"$. c #B8B043",
"%. c #898566",
"&. c #949364",
"*. c #A1A16A",
"=. c #B2AD64",
"-. c #BBB96C",
";. c #D0AB47",
":. c #DFBD4C",
">. c #CEB753",
",. c #CCB856",
"<. c #CDBF59",
"1. c #D3BB50",
"2. c #DBBC52",
"3. c #E3BC47",
"4. c #E4BE4B",
"5. c #DACD42",
"6. c #D3C45E",
"7. c #D8C75E",
"8. c #D8C95E",
"9. c #DCD75D",
"0. c #E5C24C",
"q. c #E4D341",
"w. c #E3C251",
"e. c #E6CD5A",
"r. c #F0DC5B",
"t. c #C8C36D",
"y. c #DFD971",
"u. c #EADB62",
"i. c #F7EC68",
"p. c #FDF36C",
"a. c #F4EE72",
"s. c #6C6F80",
"d. c #6F7182",
"f. c #727585",
"g. c #777989",
/* pixels */
"                                            ",
"                  j S %.&.                  ",
"            A , 1 q r g x  .$.6.            ",
"          , 8 b m M M n n c *.9.5.          ",
"        % i M V V F V N m f v -.a.q.        ",
"      , q m N V H J J F N b k &.y.p.]       ",
"    A > b M C G J g.f.F B b d v t.i.r.(     ",
"    = i n V F J f.f.J J N d p c =.u.r.'     ",
"    ; w b V G H J F J J N a i h ..7.e.4.@.  ",
"  h > w b B M B N N N N N m d y  .8.e.w.Q   ",
"  l - q b n b n N N N m s d i t T 6.w.4.^   ",
"  l - q w b b b N N m a a q q r T ,.2.4.^   ",
"  g * 0 q w b s b m b w i q q t Y >.0.0.~   ",
"    $ 8 8 q w s w w b a q 0 0 r [ 1.0.4.E   ",
"    X - 8 8 q w q q w w q 9 0 e } 1.0._ o.  ",
"    & $ ; 8 8 q w q q q 8 q 9 6 O.4.4.W     ",
"      X ; ; 8 8 0 q q q 9 8 0 z ;.:.) !     ",
"        O ; ; 8 8 8 8 8 ; 8 5 { ;.` L       ",
"        @ o - - ; ; ; ; ; 2 7 +.^ K         ",
"            . $ - - ; , 2 6 I R U           ",
"                X X @ # 3 4 P               ",
"                                            "
};
