/* XPM */
static char *waxing_gibbous_moon[] = {
/* columns rows colors chars-per-pixel */
"22 22 164 2 ",
"   c None",
".  c #0E0E15",
"X  c #17181F",
"o  c #141519",
"O  c #1D1E26",
"+  c #1F2029",
"@  c #23242C",
"#  c #2B2B2F",
"$  c #272831",
"%  c #2B2C35",
"&  c #2E303A",
"*  c #33343E",
"=  c #333335",
"-  c #41351D",
";  c #47453B",
":  c #58513B",
">  c #756029",
",  c #373844",
"<  c #3E3F41",
"1  c #383A47",
"2  c #3E404D",
"3  c #42444E",
"4  c #48494B",
"5  c #434546",
"6  c #5C5A48",
"7  c #4B4D54",
"8  c #484B58",
"9  c #555756",
"0  c #56565C",
"q  c #57585D",
"w  c #6F6847",
"e  c #717051",
"r  c #5C5F67",
"t  c #66676B",
"y  c #767776",
"u  c #787876",
"i  c #8F621C",
"p  c #9D6B1C",
"a  c #A86F11",
"s  c #BD7A21",
"d  c #B6832C",
"f  c #A18331",
"g  c #C6902F",
"h  c #C9972E",
"j  c #D09924",
"k  c #D4902C",
"l  c #D8A52B",
"z  c #D4A43A",
"x  c #D6AA3D",
"c  c #DDA53B",
"v  c #C8B03B",
"b  c #E2AC3D",
"n  c #8F8145",
"m  c #9B8844",
"M  c #85835F",
"N  c #958C54",
"B  c #92916E",
"V  c #969577",
"C  c #9D977F",
"Z  c #989878",
"A  c #B4AC60",
"S  c #DFAF46",
"D  c #DCB047",
"F  c #D0B24E",
"G  c #C1AF57",
"H  c #DFBB53",
"J  c #D2B951",
"K  c #E9BB46",
"L  c #E2B748",
"P  c #E3BE4B",
"I  c #E3B745",
"U  c #E5C24D",
"Y  c #E9C14A",
"T  c #EECA4C",
"R  c #F0CE4E",
"E  c #F2D24E",
"W  c #E4C350",
"Q  c #E7C853",
"!  c #EACD55",
"~  c #E6CC59",
"^  c #E9CD58",
"/  c #EDD050",
"(  c #EBD45D",
")  c #EED85B",
"_  c #F1D353",
"`  c #F4DC5B",
"'  c #F3D855",
"]  c #FCE65F",
"[  c #CBC46F",
"{  c #DECF66",
"}  c #EAD664",
"|  c #EFDB62",
" . c #EDDC6E",
".. c #F2DE62",
"X. c #EDDD74",
"o. c #E9D77F",
"O. c #EFE16C",
"+. c #F4E364",
"@. c #F8E562",
"#. c #F6EA66",
"$. c #F3E46B",
"%. c #FAEE6B",
"&. c #FEF066",
"*. c #FEF66C",
"=. c #EEE17C",
"-. c #F1E472",
";. c #F7EE76",
":. c #F3E77C",
">. c #F7ED79",
",. c #FCF475",
"<. c #FFFB77",
"1. c #FCF578",
"2. c #FFFB7B",
"3. c #888881",
"4. c #959685",
"5. c #989981",
"6. c #98978B",
"7. c #BCB587",
"8. c #B5B49F",
"9. c #C9C681",
"0. c #D7CD8B",
"q. c #DBD581",
"w. c #D4D19A",
"e. c #E2DF8D",
"r. c #E0DA9B",
"t. c #ECE483",
"y. c #F1E581",
"u. c #F6ED83",
"i. c #F7EF8E",
"p. c #F1E589",
"a. c #F9F383",
"s. c #FEFC82",
"d. c #F8F189",
"f. c #FFFC8B",
"g. c #E4E19A",
"h. c #F4EC92",
"j. c #F6EE9B",
"k. c #FFFC95",
"l. c #FFFD98",
"z. c #FAF399",
"x. c #C1C0A1",
"c. c #CCC8AD",
"v. c #DED8A0",
"b. c #D9D7AF",
"n. c #DEDAB2",
"m. c #F8EFA4",
"M. c #F6EFA8",
"N. c #F7F1A5",
"B. c #FEFCA3",
"V. c #F7F1A9",
"C. c #F9F3AD",
"Z. c #FFFEAE",
"A. c #FAF5A4",
"S. c #EEEABD",
"D. c #F0EDB8",
"F. c #F9F3B3",
"G. c #FBF6BD",
"H. c #FEFDBA",
"J. c #FDFBB5",
"K. c #F9F5C2",
"L. c #FDFBC6",
"P. c #FCFACD",
"I. c #F6F2C5",
"U. c #FEFDD3",
/* pixels */
"                                            ",
"                  C 7.0.o.                  ",
"              9 V 9.t.a.2.<.#.v             ",
"          , r 4.w.N.B.k.f.s.s.<.&.          ",
"        , 8 y x.D.H.Z.B.l.f.2.2.2.*.        ",
"      % 1 0 6.b.L.L.H.Z.B.l.s.2.,.*.]       ",
"    . * 2 t 8.I.K.U.L.J.B.k.f.2.1.%.+.x     ",
"    O , 3 y c.I.P.P.L.H.A.i.u.1.,.#.) T     ",
"    @ * 3 3.b.K.G.F.G.H.B.u.>.,.%.} ~ Q d   ",
"  q + * 8 4.v.F.C.N.V.C.B.k.a.-.#.| ~ U z   ",
"  q + & 7 5.w.z.N.M.V.j.y.u.>.| $.| W P x   ",
"  q + & 4 Z r.h.N.A.j.p.X.X.$.-.| ~ H P z   ",
"  0 O % 5 B e.h.j.z.h.=.X.X.$.$.| ^ W P z   ",
"    O % 5 M o.d.t.:.i.:. .} O.| ( ! U P g   ",
"    X $ * e [ ;. .} -.-.} | | ( ! Q U K i   ",
"    . @ % 6 A $.%.$.$.+.( ....! Q Y P c     ",
"      @ $ ; N { +.#.@.] ..` ` T U K K p     ",
"        @ = w G ( ` ` ` ' ' _ T L D k       ",
"        o # ; n J ( ' / R R Y I D h         ",
"            # : m F U T T K I b s           ",
"                - > f h l j a               ",
"                                            "
};
